<svg
    xmlns="http://www.w3.org/2000/svg"
    width="219.7"
    height="31.88"
    viewBox="0 0 369.545 53.626"
    class="looka-1j8o68f"
>
    <defs id="SvgjsDefs1150"></defs>
    <g
        id="SvgjsG1151"
        featurekey="symbolFeature-0"
        transform="matrix(1.0725, 0, 0, 1.0725, -5.8989, -26.8131)"
        fill="#2b3a42"
    >
        <path
            d="M60.36,43.322c-0.523,0-0.944,0.676-0.944,1.511c0,0.836,0.422,1.512,0.944,1.512
            c0.522,0,0.944-0.676,0.944-1.512C61.305,43.998,60.883,43.322,60.36,43.322z M57.772,42.125c-0.522,0-0.945,0.676-0.945,1.511
            c0,0.836,0.423,1.512,0.945,1.512c0.522,0,0.944-0.676,0.944-1.512C58.717,42.801,58.295,42.125,57.772,42.125z
            M70.922,48.021c-2.67-0.938-4.717-0.576-4.717-0.576s-0.628,3.078,3.837,4.246c4.464,1.165,5.07-1.038,5.07-1.038
            S73.764,49.017,70.922,48.021z M68.515,50.302c-1.277-0.462-1.512-1.404-1.399-2.097c0.656-0.438,3.777,0.346,3.665,1.039
            C70.669,49.938,69.792,50.764,68.515,50.302z M62.948,44.519c-0.522,0-0.945,0.675-0.945,1.512c0,0.835,0.423,1.512,0.945,1.512
            c0.522,0,0.944-0.677,0.944-1.512C63.893,45.194,63.471,44.519,62.948,44.519z M90.874,57.069l-26.42-19.092v2.109l26.42,17.72
            V57.069z M93,59.969c0,0,0.002-3.19,0-3.19c0-0.372-0.079-0.891-0.344-1.091l-9.427-7.167v-5.093c0-0.113-0.04-0.223-0.109-0.312
            c-0.044-0.022-2.22-2.861-5.27-2.9c-0.738-0.005-1.257,0.256-1.595,0.521c-0.045-0.083-0.102-0.161-0.176-0.222L60.418,27.382
            c-0.124-0.103-0.272-0.163-0.432-0.175c-0.009,0-0.26-0.017-0.703-0.03c0-0.012,0.003-0.022,0.003-0.034
            c0-1.184-0.961-2.143-2.143-2.143C55.961,25,55,25.959,55,27.143c0,0.047,0.013,0.09,0.016,0.136
            c-2.985,0.205-6.928,0.761-10.714,2.19c-0.388-0.54-1.015-0.896-1.731-0.896c-1.182,0-2.142,0.959-2.142,2.143
            c0,0.194,0.035,0.379,0.084,0.558c-1.611,0.953-3.115,2.114-4.396,3.558c-0.12,0.136-0.186,0.312-0.186,0.496v0.496
            c-0.933,0.601-3.464,2.298-5.07,4.102C22.58,38.148,14.91,37,10.239,37c-2.412,0-4.023,0.305-4.508,0.987
            c-1.198,1.685,2.432,4.414,7.009,8.85c15.097,14.63,15.157,21.734,16.894,26.009C30.247,74.354,36.403,75,44.813,75
            c15.455,0,38.528-2.183,48.848-5.224L94.5,67L93,59.969z M77.851,42.859c1.933,0,3.585,1.374,4.377,2.165l0.002,2.732
            l-4.379-3.342V42.859z M58.204,28.662c0.678,0,1.172,0.017,1.442,0.03l15.269,12.803l0.552,2.755c0.035,0.178,0.134,0.337,0.281,0.448
            L91.75,56.65v3.1c-13.737-9.877-25.987-16.93-29.866-19.052l1.263-0.198c0.242-0.039,0.422-0.25,0.422-0.494v-1.749
            c0-0.178-0.096-0.341-0.248-0.432l-0.477-0.279v-2.181c0-0.157-0.074-0.307-0.199-0.399l-5.842-4.398c0,0-0.654-0.125-1.321-0.125
            c-2.753,0.004-10.45,0.427-17.688,4.809C43.522,29.366,54.095,28.64,58.204,28.662z M37.073,36.871
            c3.677-2.788,11.594-5.038,18.408-5.427c0.4-0.023,0.687,0.01,0.844,0.017l5.521,4.155v1.347l-6.279-3.677
            c-0.075-0.044-0.157-0.059-0.238-0.062l-0.016-0.011c0,0-15.77,0.714-22.077,7.235c-0.208-0.047-0.414-0.093-0.621-0.139
            C33.425,39.604,34.697,38.672,37.073,36.871z M92.063,68.148C81.208,71.063,59.231,73,44.813,73c-10.1,0-12.841-0.929-13.447-1.216
            c-0.209-0.561-0.405-1.198-0.626-1.92c-1.456-4.744-3.658-11.913-16.608-24.463c-0.287-0.278-0.867-0.827-1.547-1.47
            c0.553-1.569,3.739-1.466,6.081-1.181c5.994,0.729,12.236,2.252,18.064,3.309c1.052-0.895,2.161-1.788,3.413-2.637
            c0.557-0.391,1.195-0.879,1.889-1.257c1.057-0.536,2.14-0.996,3.265-1.361c1.254-0.368,2.529-0.602,3.823-0.649
            C73.84,53.97,92.063,68.148,92.063,68.148z"
        />
    </g>
</svg>
